<svg width="38" height="38" viewBox="0 0 38 38" fill="none" xmlns="http://www.w3.org/2000/svg">
<g clip-path="url(#clip0_9_31)">
<path d="M19 0C13.8383 0 13.194 0.02375 11.1673 0.114C9.14375 0.209 7.76625 0.52725 6.555 0.9975C5.30575 1.482 4.24492 2.13275 3.18883 3.18883C2.13275 4.24492 1.48042 5.30417 0.9975 6.555C0.52725 7.76625 0.207417 9.14375 0.114 11.1673C0.019 13.194 0 13.8383 0 19C0 24.1617 0.02375 24.806 0.114 26.8328C0.209 28.8547 0.52725 30.2337 0.9975 31.445C1.482 32.6927 2.13275 33.755 3.18883 34.8112C4.24492 35.8657 5.30417 36.5195 6.555 37.0025C7.76783 37.4712 9.14533 37.7925 11.1673 37.886C13.194 37.981 13.8383 38 19 38C24.1617 38 24.806 37.9762 26.8328 37.886C28.8547 37.791 30.2337 37.4712 31.445 37.0025C32.6927 36.518 33.755 35.8657 34.8112 34.8112C35.8657 33.755 36.5195 32.6975 37.0025 31.445C37.4712 30.2337 37.7925 28.8547 37.886 26.8328C37.981 24.806 38 24.1617 38 19C38 13.8383 37.9762 13.194 37.886 11.1673C37.791 9.14533 37.4712 7.76467 37.0025 6.555C36.518 5.30575 35.8657 4.24492 34.8112 3.18883C33.755 2.13275 32.6975 1.48042 31.445 0.9975C30.2337 0.52725 28.8547 0.207417 26.8328 0.114C24.806 0.019 24.1617 0 19 0ZM19 3.42C24.0715 3.42 24.6763 3.44533 26.6792 3.53242C28.5317 3.6195 29.537 3.92667 30.2053 4.1895C31.095 4.53308 31.7253 4.94475 32.3935 5.60817C33.0568 6.27317 33.4685 6.90492 33.812 7.79475C34.0718 8.46292 34.382 9.46833 34.466 11.3208C34.5563 13.3253 34.5768 13.927 34.5768 19C34.5768 24.073 34.553 24.6763 34.4597 26.6792C34.363 28.5317 34.0543 29.537 33.793 30.2053C33.4385 31.095 33.0347 31.7253 32.3697 32.3935C31.7062 33.0568 31.065 33.4685 30.1847 33.812C29.5197 34.0718 28.4985 34.382 26.646 34.466C24.6287 34.5563 24.035 34.5768 18.9525 34.5768C13.8685 34.5768 13.2747 34.553 11.2591 34.4597C9.405 34.363 8.38375 34.0543 7.71875 33.793C6.81783 33.4385 6.19875 33.0347 5.53533 32.3697C4.86875 31.7062 4.44283 31.065 4.11033 30.1847C3.84908 29.5197 3.54192 28.4985 3.44533 26.646C3.37408 24.651 3.34875 24.035 3.34875 18.9762C3.34875 13.916 3.37408 13.2985 3.44533 11.2797C3.54192 9.42717 3.84908 8.4075 4.11033 7.7425C4.44283 6.84 4.86875 6.2225 5.53533 5.55592C6.19875 4.8925 6.81783 4.465 7.71875 4.13408C8.38375 3.87125 9.38283 3.5625 11.2353 3.4675C13.254 3.39625 13.8478 3.3725 18.9287 3.3725L19 3.42ZM19 9.2435C13.6088 9.2435 9.2435 13.6135 9.2435 19C9.2435 24.3913 13.6135 28.7565 19 28.7565C24.3913 28.7565 28.7565 24.3865 28.7565 19C28.7565 13.6088 24.3865 9.2435 19 9.2435ZM19 25.3333C15.5008 25.3333 12.6667 22.4992 12.6667 19C12.6667 15.5008 15.5008 12.6667 19 12.6667C22.4992 12.6667 25.3333 15.5008 25.3333 19C25.3333 22.4992 22.4992 25.3333 19 25.3333ZM31.4228 8.85875C31.4228 10.1175 30.4 11.1388 29.1428 11.1388C27.884 11.1388 26.8628 10.1159 26.8628 8.85875C26.8628 7.60158 27.8857 6.58033 29.1428 6.58033C30.3985 6.57875 31.4228 7.60158 31.4228 8.85875Z" fill="white"/>
</g>
<defs>
<clipPath id="clip0_9_31">
<rect width="38" height="38" fill="white"/>
</clipPath>
</defs>
</svg>
