<svg width="96" height="27" viewBox="0 0 96 27" fill="none" xmlns="http://www.w3.org/2000/svg">
<path d="M8.172 0.648V25.848H2.772V0.648H8.172ZM17.676 24.3L18.54 25.848H8.064V24.3H17.676ZM16.344 12.672V14.184H8.064V12.672H16.344ZM18.108 0.648V2.196H8.064V0.648H18.108ZM20.304 18.468L18.648 25.848H11.592L12.888 24.3C14.088 24.3 15.144 24.072 16.056 23.616C16.968 23.136 17.748 22.464 18.396 21.6C19.044 20.712 19.56 19.668 19.944 18.468H20.304ZM16.344 14.112V17.568H15.984V17.28C15.984 16.392 15.696 15.66 15.12 15.084C14.544 14.508 13.812 14.208 12.924 14.184V14.112H16.344ZM16.344 9.288V12.744H12.924V12.672C13.812 12.648 14.544 12.348 15.12 11.772C15.696 11.172 15.984 10.428 15.984 9.54V9.288H16.344ZM18.108 2.088V6.3H17.748V5.868C17.748 4.764 17.412 3.876 16.74 3.204C16.092 2.532 15.204 2.184 14.076 2.16V2.088H18.108ZM18.108 0V1.044L13.716 0.648C14.244 0.648 14.796 0.612001 15.372 0.540002C15.972 0.468001 16.524 0.384001 17.028 0.288001C17.532 0.192 17.892 0.0960002 18.108 0ZM2.88 23.22V25.848H0V25.488C0 25.488 0.072 25.488 0.216 25.488C0.384 25.488 0.468 25.488 0.468 25.488C1.092 25.488 1.62 25.272 2.052 24.84C2.508 24.384 2.748 23.844 2.772 23.22H2.88ZM2.88 3.276H2.772C2.748 2.652 2.508 2.124 2.052 1.692C1.62 1.236 1.092 1.008 0.468 1.008C0.468 1.008 0.384 1.008 0.216 1.008C0.072 1.008 0 1.008 0 1.008V0.648H2.88V3.276Z" fill="white"/>
<path d="M22.6741 14.148H33.4741L33.7621 15.336L33.4741 16.56H22.6741L22.3861 15.336L22.6741 14.148Z" fill="white"/>
<path d="M39.9139 4.248H45.8899C46.8259 4.248 47.7739 4.32 48.7339 4.464C49.6939 4.608 50.5699 4.872 51.3619 5.256C52.1539 5.64 52.7899 6.18 53.2699 6.876C53.7499 7.572 53.9899 8.484 53.9899 9.612C53.9899 10.524 53.7979 11.304 53.4139 11.952C53.0299 12.6 52.5379 13.104 51.9379 13.464C51.3379 13.824 50.7019 14.028 50.0299 14.076C51.0859 14.148 52.0339 14.424 52.8739 14.904C53.7139 15.384 54.3859 16.032 54.8899 16.848C55.4179 17.64 55.6819 18.588 55.6819 19.692C55.6819 20.82 55.4419 21.78 54.9619 22.572C54.4819 23.34 53.8219 23.976 52.9819 24.48C52.1419 24.96 51.1699 25.308 50.0659 25.524C48.9859 25.74 47.8459 25.848 46.6459 25.848H43.4059C43.4059 25.848 43.4059 25.728 43.4059 25.488C43.4059 25.248 43.4059 25.008 43.4059 24.768C43.4059 24.528 43.4059 24.408 43.4059 24.408H45.1339C45.9979 24.408 46.7779 24.252 47.4739 23.94C48.1939 23.604 48.7699 23.064 49.2019 22.32C49.6339 21.576 49.8499 20.592 49.8499 19.368C49.8499 18.528 49.7179 17.796 49.4539 17.172C49.2139 16.524 48.8659 16.008 48.4099 15.624C47.9539 15.216 47.4139 14.916 46.7899 14.724C46.1659 14.532 45.4819 14.436 44.7379 14.436V14.112C45.2659 14.112 45.7699 14.04 46.2499 13.896C46.7299 13.728 47.1379 13.488 47.4739 13.176C47.8339 12.84 48.1099 12.408 48.3019 11.88C48.5179 11.352 48.6259 10.716 48.6259 9.972C48.6259 8.364 48.2539 7.248 47.5099 6.624C46.7659 5.976 45.8299 5.652 44.7019 5.652H40.2379C40.2379 5.628 40.2019 5.508 40.1299 5.292C40.0819 5.052 40.0339 4.824 39.9859 4.608C39.9379 4.368 39.9139 4.248 39.9139 4.248ZM43.6579 4.248V25.848H38.5459V4.248H43.6579ZM38.6539 23.58V25.848H36.2059V25.488C36.2299 25.488 36.2899 25.488 36.3859 25.488C36.5059 25.488 36.5779 25.488 36.6019 25.488C37.1779 25.488 37.6459 25.308 38.0059 24.948C38.3899 24.564 38.5699 24.108 38.5459 23.58H38.6539ZM38.6539 6.516H38.5459C38.5699 5.94 38.3899 5.484 38.0059 5.148C37.6459 4.788 37.1779 4.608 36.6019 4.608C36.5779 4.608 36.5059 4.608 36.3859 4.608C36.2899 4.608 36.2299 4.608 36.2059 4.608V4.248H38.6539V6.516Z" fill="white"/>
<path d="M65.5644 4.248V25.848H60.3804V4.248H65.5644ZM60.4884 23.58V25.848H57.8604V25.488C57.8604 25.488 57.9324 25.488 58.0764 25.488C58.2204 25.488 58.3044 25.488 58.3284 25.488C58.8804 25.488 59.3604 25.308 59.7684 24.948C60.1764 24.564 60.3804 24.108 60.3804 23.58H60.4884ZM65.4924 23.58H65.5644C65.5884 24.108 65.7924 24.564 66.1764 24.948C66.5844 25.308 67.0764 25.488 67.6524 25.488C67.6524 25.488 67.7124 25.488 67.8324 25.488C67.9764 25.488 68.0604 25.488 68.0844 25.488V25.848H65.4924V23.58ZM65.4924 6.516V4.248H68.0844L68.0484 4.608C68.0484 4.608 67.9884 4.608 67.8684 4.608C67.7484 4.608 67.6764 4.608 67.6524 4.608C67.0764 4.608 66.5844 4.788 66.1764 5.148C65.7924 5.508 65.5884 5.964 65.5644 6.516H65.4924ZM60.4884 6.516H60.3804C60.3804 5.964 60.1764 5.508 59.7684 5.148C59.3604 4.788 58.8684 4.608 58.2924 4.608C58.2924 4.608 58.2204 4.608 58.0764 4.608C57.9324 4.608 57.8604 4.608 57.8604 4.608V4.248H60.4884V6.516Z" fill="white"/>
<path d="M82.9443 3.78C84.8643 3.78 86.6043 4.044 88.1643 4.572C89.7243 5.076 91.0683 5.82 92.1963 6.804C93.3243 7.788 94.1883 8.976 94.7883 10.368C95.4123 11.76 95.7243 13.332 95.7243 15.084C95.7243 16.812 95.4123 18.372 94.7883 19.764C94.1883 21.132 93.3243 22.308 92.1963 23.292C91.0683 24.276 89.7243 25.032 88.1643 25.56C86.6043 26.064 84.8643 26.316 82.9443 26.316C81.0483 26.316 79.3203 26.064 77.7603 25.56C76.2003 25.032 74.8563 24.276 73.7283 23.292C72.6003 22.308 71.7363 21.132 71.1363 19.764C70.5363 18.372 70.2363 16.812 70.2363 15.084C70.2363 13.332 70.5363 11.76 71.1363 10.368C71.7363 8.976 72.6003 7.788 73.7283 6.804C74.8563 5.82 76.2003 5.076 77.7603 4.572C79.3203 4.044 81.0483 3.78 82.9443 3.78ZM82.9443 24.912C84.4083 24.912 85.6803 24.516 86.7603 23.724C87.8643 22.908 88.7043 21.768 89.2803 20.304C89.8803 18.84 90.1803 17.1 90.1803 15.084C90.1803 13.044 89.8803 11.292 89.2803 9.828C88.7043 8.34 87.8643 7.2 86.7603 6.408C85.6803 5.592 84.4083 5.184 82.9443 5.184C81.5043 5.184 80.2443 5.592 79.1643 6.408C78.0843 7.2 77.2443 8.34 76.6443 9.828C76.0443 11.292 75.7443 13.044 75.7443 15.084C75.7443 17.1 76.0443 18.84 76.6443 20.304C77.2443 21.768 78.0843 22.908 79.1643 23.724C80.2443 24.516 81.5043 24.912 82.9443 24.912Z" fill="white"/>
</svg>
